<?xml version="1.0" standalone="no"?>
<!DOCTYPE svg PUBLIC "-//W3C//DTD SVG 20010904//EN"
 "http://www.w3.org/TR/2001/REC-SVG-20010904/DTD/svg10.dtd">
<svg version="1.0" xmlns="http://www.w3.org/2000/svg"
 width="1080.000000pt" height="1080.000000pt" viewBox="0 0 1080.000000 1080.000000"
 preserveAspectRatio="xMidYMid meet">

<g transform="translate(0.000000,1080.000000) scale(0.100000,-0.100000)"
fill="#000000" stroke="none">
<path d="M5491 9256 c-18 -19 -22 -33 -19 -58 3 -18 83 -323 177 -678 194
-726 606 -2283 795 -3000 233 -887 497 -1885 511 -1935 7 -27 18 -69 24 -92
11 -40 13 -42 82 -63 39 -12 74 -19 77 -16 5 6 -110 446 -553 2121 -129 489
-234 894 -232 899 2 6 20 -44 41 -110 21 -65 84 -263 141 -439 57 -176 169
-527 250 -780 81 -253 191 -597 245 -765 54 -168 130 -406 170 -530 40 -124
90 -280 111 -346 l39 -121 65 -22 c58 -19 95 -26 95 -18 0 1 -16 49 -34 107
-29 89 -163 507 -327 1020 -22 69 -60 186 -84 260 -24 74 -78 243 -120 375
-42 132 -98 308 -125 390 -27 83 -83 258 -125 390 -42 132 -103 323 -136 424
-33 101 -57 186 -54 189 5 5 14 -16 45 -103 10 -27 53 -140 95 -250 42 -110
106 -279 142 -375 36 -96 81 -213 98 -260 18 -47 72 -188 120 -315 48 -126
112 -295 142 -375 96 -253 182 -480 248 -655 35 -93 85 -224 110 -290 26 -66
57 -149 70 -185 13 -36 55 -146 92 -245 l69 -179 79 -28 c43 -15 81 -26 83
-23 5 5 -8 43 -103 290 -42 110 -106 279 -142 375 -36 96 -81 213 -98 260 -18
47 -72 189 -120 315 -48 127 -112 295 -142 375 -81 213 -175 462 -250 660 -36
96 -81 213 -98 260 -184 479 -286 753 -282 756 4 5 50 -97 392 -876 141 -322
281 -639 310 -705 29 -66 144 -327 255 -580 111 -253 236 -536 277 -630 135
-305 180 -409 213 -485 18 -41 39 -82 49 -91 20 -20 161 -60 161 -46 0 8 -169
395 -507 1162 -113 256 -169 382 -308 700 -70 160 -152 346 -182 415 -31 69
-64 143 -73 165 -17 39 -47 107 -203 460 -41 94 -98 224 -127 290 -74 170
-169 386 -182 415 -21 45 -22 46 -10 35 13 -12 63 -110 412 -800 144 -286 333
-659 420 -830 210 -414 503 -992 810 -1600 139 -275 260 -508 268 -517 8 -10
23 -18 32 -18 10 0 33 -6 51 -14 19 -7 49 -17 67 -21 l32 -7 -123 244 c-138
271 -427 840 -747 1473 -287 568 -545 1077 -800 1578 -116 230 -210 420 -207
423 2 2 77 -125 167 -283 90 -159 277 -486 415 -728 328 -573 760 -1330 1226
-2147 367 -645 375 -657 414 -672 23 -9 50 -16 62 -16 12 0 24 -4 27 -9 7 -11
56 -21 56 -11 0 10 -128 237 -410 730 -131 228 -502 879 -825 1445 -996 1746
-1150 2015 -1415 2480 -422 738 -855 1499 -957 1680 -53 94 -105 178 -116 188
-28 24 -69 21 -96 -7z"/>
<path d="M3495 5863 c-1516 -2597 -1890 -3244 -1890 -3272 0 -42 40 -77 77
-68 18 5 1652 1621 4137 4092 l114 113 -19 72 c-11 39 -23 72 -28 72 -4 0
-521 -510 -1149 -1133 -628 -624 -1135 -1125 -1127 -1113 11 15 1878 2076
2202 2430 l37 40 -18 74 c-9 41 -22 75 -27 76 -5 1 -486 -524 -1069 -1167
-583 -643 -1095 -1206 -1138 -1251 l-79 -83 84 105 c47 58 548 672 1115 1366
566 694 1033 1266 1036 1271 5 8 -26 160 -35 169 -2 1 -507 -614 -1123 -1367
-615 -754 -1124 -1373 -1129 -1377 -7 -4 -7 -1 0 9 6 8 501 682 1100 1499 794
1083 1089 1492 1088 1510 -1 38 -23 133 -33 143 -4 4 -22 -9 -38 -30 -16 -21
-551 -749 -1188 -1618 -637 -869 -1162 -1584 -1168 -1590 -23 -22 76 130 1169
1805 627 960 1143 1750 1147 1757 7 11 1 44 -28 151 l-11 44 -1143 -1751
c-629 -963 -1145 -1751 -1148 -1751 -6 0 -24 -31 1116 1920 l1096 1875 -2 55
c-3 65 -22 160 -31 160 -4 0 -857 -1457 -1897 -3237z"/>
<path d="M3565 4119 c-30 -29 -52 -56 -48 -60 5 -4 690 -193 1523 -419 833
-226 1520 -413 1525 -415 20 -10 -74 7 -225 40 -85 19 -373 81 -640 139 -267
58 -881 191 -1365 296 -484 105 -906 196 -937 202 l-57 11 -56 -55 c-31 -31
-53 -58 -48 -61 4 -2 752 -166 1660 -363 909 -197 1651 -359 1649 -361 -2 -2
-585 91 -1297 207 -712 116 -1498 244 -1748 285 l-454 74 -41 -39 c-23 -21
-52 -47 -66 -58 l-25 -20 25 -6 c24 -6 1201 -198 2735 -447 407 -66 745 -122
750 -124 18 -9 -98 3 -1300 135 -2055 226 -2370 260 -2385 260 -23 0 -147
-118 -130 -124 8 -2 436 -50 950 -106 948 -103 2348 -256 2805 -307 138 -15
239 -29 225 -31 -14 -1 -967 49 -2119 113 -1152 63 -2099 115 -2105 115 -6 0
-42 -29 -80 -64 l-69 -64 64 -6 c35 -4 894 -51 1909 -107 1015 -55 1940 -106
2055 -114 228 -15 186 -15 -3060 1 l-1210 6 -70 -66 c-38 -36 -67 -67 -65 -69
3 -3 597 -8 1320 -11 723 -4 2118 -11 3100 -16 1505 -8 3053 -13 3097 -11 42
3 59 88 23 118 -10 9 -90 36 -177 59 -251 67 -1583 428 -3223 874 -833 226
-1697 461 -1920 521 -223 60 -413 112 -422 115 -11 3 -36 -13 -73 -47z"/>
</g>
</svg>
