<?xml version="1.0" standalone="no"?>
<!DOCTYPE svg PUBLIC "-//W3C//DTD SVG 20010904//EN"
 "http://www.w3.org/TR/2001/REC-SVG-20010904/DTD/svg10.dtd">
<svg version="1.0" xmlns="http://www.w3.org/2000/svg"
 width="48.000000pt" height="48.000000pt" viewBox="0 0 48.000000 48.000000"
 preserveAspectRatio="xMidYMid meet">

<g transform="translate(0.000000,48.000000) scale(0.100000,-0.100000)"
fill="#000000" stroke="none">
<path d="M29 451 l-29 -29 0 -182 0 -182 29 -29 29 -29 185 0 184 0 27 26 26
27 0 184 0 185 -29 29 -29 29 -182 0 -182 0 -29 -29z m171 -107 c0 -55 0 -55
22 -40 32 23 73 20 105 -8 27 -23 28 -29 31 -125 l4 -101 -36 0 -36 0 0 83 c0
87 -8 107 -45 107 -37 0 -45 -20 -45 -107 l0 -83 -35 0 -35 0 0 165 0 165 35
0 35 0 0 -56z"/>
</g>
</svg>
