<svg width="1040" height="908" viewBox="0 0 1040 908" fill="none" xmlns="http://www.w3.org/2000/svg">
<path d="M518.133 3.86667C515.733 6.4 515.2 8.26667 515.6 11.6C516 14 526.667 54.6667 539.2 102C565.067 198.8 620 406.4 645.2 502C676.267 620.267 711.467 753.333 713.333 760C714.267 763.6 715.733 769.2 716.533 772.267C718 777.6 718.267 777.867 727.467 780.667C732.667 782.267 737.333 783.2 737.733 782.8C738.4 782 723.067 723.333 664 500C646.8 434.8 632.8 380.8 633.067 380.133C633.333 379.333 635.733 386 638.533 394.8C641.333 403.467 649.733 429.867 657.333 453.333C664.933 476.8 679.867 523.6 690.667 557.333C701.467 591.067 716.133 636.933 723.333 659.333C730.533 681.733 740.667 713.467 746 730C751.333 746.533 758 767.333 760.8 776.133L766 792.267L774.667 795.2C782.4 797.733 787.333 798.667 787.333 797.6C787.333 797.467 785.2 791.067 782.8 783.333C778.933 771.467 761.067 715.733 739.2 647.333C736.267 638.133 731.2 622.533 728 612.667C724.8 602.8 717.6 580.267 712 562.667C706.4 545.067 698.933 521.6 695.333 510.667C691.733 499.6 684.267 476.267 678.667 458.667C673.067 441.067 664.933 415.6 660.533 402.133C656.133 388.667 652.933 377.333 653.333 376.933C654 376.267 655.2 379.067 659.333 390.667C660.667 394.267 666.4 409.333 672 424C677.6 438.667 686.133 461.2 690.933 474C695.733 486.8 701.733 502.4 704 508.667C706.4 514.933 713.6 533.733 720 550.667C726.4 567.467 734.933 590 738.933 600.667C751.733 634.4 763.2 664.667 772 688C776.667 700.4 783.333 717.867 786.667 726.667C790.133 735.467 794.267 746.533 796 751.333C797.733 756.133 803.333 770.8 808.267 784L817.467 807.867L828 811.6C833.733 813.6 838.8 815.067 839.067 814.667C839.733 814 838 808.933 825.333 776C819.733 761.333 811.2 738.8 806.4 726C801.6 713.2 795.6 697.6 793.333 691.333C790.933 685.067 783.733 666.133 777.333 649.333C770.933 632.4 762.4 610 758.4 599.333C747.6 570.933 735.067 537.733 725.067 511.333C720.267 498.533 714.267 482.933 712 476.667C687.467 412.8 673.867 376.267 674.4 375.867C674.933 375.2 681.067 388.8 726.667 492.667C745.467 535.6 764.133 577.867 768 586.667C771.867 595.467 787.2 630.267 802 664C816.8 697.733 833.467 735.467 838.933 748C856.933 788.667 862.933 802.533 867.333 812.667C869.733 818.133 872.533 823.6 873.867 824.8C876.533 827.467 895.333 832.8 895.333 830.933C895.333 829.867 872.8 778.267 827.733 676C812.667 641.867 805.2 625.067 786.667 582.667C777.333 561.333 766.4 536.533 762.4 527.333C758.267 518.133 753.867 508.267 752.667 505.333C750.4 500.133 746.4 491.067 725.6 444C720.133 431.467 712.533 414.133 708.667 405.333C698.8 382.667 686.133 353.867 684.4 350C681.6 344 681.467 343.867 683.067 345.333C684.8 346.933 691.467 360 738 452C757.2 490.133 782.4 539.867 794 562.667C822 617.867 861.067 694.933 902 776C920.533 812.667 936.667 843.733 937.733 844.933C938.8 846.267 940.8 847.333 942 847.333C943.333 847.333 946.4 848.133 948.8 849.2C951.333 850.133 955.333 851.467 957.733 852L962 852.933L945.6 820.4C927.2 784.267 888.667 708.4 846 624C807.733 548.267 773.333 480.4 739.333 413.6C723.867 382.933 711.333 357.6 711.733 357.2C712 356.933 722 373.867 734 394.933C746 416.133 770.933 459.733 789.333 492C833.067 568.4 890.667 669.333 952.8 778.267C1001.73 864.267 1002.8 865.867 1008 867.867C1011.07 869.067 1014.67 870 1016.27 870C1017.87 870 1019.47 870.533 1019.87 871.2C1020.8 872.667 1027.33 874 1027.33 872.667C1027.33 871.333 1010.27 841.067 972.667 775.333C955.2 744.933 905.733 658.133 862.667 582.667C729.867 349.867 709.333 314 674 252C617.733 153.6 560 52.1333 546.4 28C539.333 15.4667 532.4 4.26667 530.933 2.93334C527.2 -0.266663 521.733 0.133337 518.133 3.86667Z" fill="white"/>
<path d="M252 456.266C49.8667 802.533 0 888.8 0 892.533C0 898.133 5.33333 902.8 10.2667 901.6C12.6667 900.933 230.533 685.466 561.867 356L577.067 340.933L574.533 331.333C573.067 326.133 571.467 321.733 570.8 321.733C570.267 321.733 501.333 389.733 417.6 472.8C333.867 556 266.267 622.8 267.333 621.2C268.8 619.2 517.733 344.4 560.933 297.2L565.867 291.866L563.467 282C562.267 276.533 560.533 272 559.867 271.866C559.2 271.733 495.067 341.733 417.333 427.466C339.6 513.2 271.333 588.266 265.6 594.266L255.067 605.333L266.267 591.333C272.533 583.6 339.333 501.733 414.933 409.2C490.4 316.666 552.667 240.4 553.067 239.733C553.733 238.666 549.6 218.4 548.4 217.2C548.133 217.066 480.8 299.066 398.667 399.466C316.667 500 248.8 582.533 248.133 583.066C247.2 583.6 247.2 583.2 248.133 581.866C248.933 580.8 314.933 490.933 394.8 382C500.667 237.6 540 183.066 539.867 180.666C539.733 175.6 536.8 162.933 535.467 161.6C534.933 161.066 532.533 162.8 530.4 165.6C528.267 168.4 456.933 265.466 372 381.333C287.067 497.2 217.067 592.533 216.267 593.333C213.2 596.266 226.4 576 372.133 352.666C455.733 224.666 524.533 119.333 525.067 118.4C526 116.933 525.2 112.533 521.333 98.2665L519.867 92.3998L367.467 325.866C283.6 454.266 214.8 559.333 214.4 559.333C213.6 559.333 211.2 563.466 363.2 303.333L509.333 53.3331L509.067 45.9998C508.667 37.3331 506.133 24.6665 504.933 24.6665C504.4 24.6665 390.667 218.933 252 456.266Z" fill="white"/>
<path d="M261.333 688.8C257.333 692.667 254.4 696.267 254.933 696.8C255.6 697.333 346.933 722.533 458 752.667C569.067 782.8 660.667 807.733 661.333 808C664 809.333 651.467 807.067 631.333 802.667C620 800.133 581.6 791.867 546 784.133C510.4 776.4 428.533 758.667 364 744.667C299.467 730.667 243.2 718.533 239.067 717.733L231.467 716.267L224 723.6C219.867 727.733 216.933 731.333 217.6 731.733C218.133 732 317.867 753.867 438.933 780.133C560.133 806.4 659.067 828 658.8 828.267C658.533 828.533 580.8 816.133 485.867 800.667C390.933 785.2 286.133 768.133 252.8 762.667L192.267 752.8L186.8 758C183.733 760.8 179.867 764.267 178 765.733L174.667 768.4L178 769.2C181.2 770 338.133 795.6 542.667 828.8C596.933 837.6 642 845.067 642.667 845.333C645.067 846.533 629.6 844.933 469.333 827.333C195.333 797.2 153.333 792.667 151.333 792.667C148.267 792.667 131.733 808.4 134 809.2C135.067 809.467 192.133 815.867 260.667 823.333C387.067 837.067 573.733 857.467 634.667 864.267C653.067 866.267 666.533 868.133 664.667 868.4C662.8 868.533 535.733 861.867 382.133 853.333C228.533 844.933 102.267 838 101.467 838C100.667 838 95.8667 841.867 90.8 846.533L81.6 855.067L90.1333 855.867C94.8 856.4 209.333 862.667 344.667 870.133C480 877.467 603.333 884.267 618.667 885.333C649.067 887.333 643.467 887.333 210.667 885.2L49.3333 884.4L40 893.2C34.9333 898 31.0666 902.133 31.3333 902.4C31.7333 902.8 110.933 903.467 207.333 903.867C303.733 904.4 489.733 905.333 620.667 906C821.333 907.067 1027.73 907.733 1033.6 907.467C1039.2 907.067 1041.47 895.733 1036.67 891.733C1035.33 890.533 1024.67 886.933 1013.07 883.867C979.6 874.933 802 826.8 583.333 767.333C472.267 737.2 357.067 705.867 327.333 697.867C297.6 689.867 272.267 682.933 271.067 682.533C269.6 682.133 266.267 684.267 261.333 688.8Z" fill="white"/>
</svg>
