<svg width="50" height="44" viewBox="0 0 50 44" fill="none" xmlns="http://www.w3.org/2000/svg">
<path d="M24.9275 0.148696C24.812 0.270575 24.7864 0.36038 24.8056 0.520747C24.8249 0.636212 25.338 2.59269 25.941 4.8699C27.1855 9.52696 29.8283 19.5146 31.0407 24.1139C32.5353 29.8038 34.2288 36.2056 34.3186 36.5264C34.3635 36.6996 34.434 36.969 34.4725 37.1165C34.5431 37.3731 34.5559 37.3859 34.9985 37.5206C35.2487 37.5976 35.4732 37.6425 35.4925 37.6233C35.5245 37.5848 34.7869 34.7623 31.9451 24.0177C31.1177 20.8809 30.4441 18.283 30.4569 18.2509C30.4698 18.2124 30.5852 18.5332 30.7199 18.9565C30.8547 19.3735 31.2588 20.6436 31.6244 21.7726C31.9901 22.9016 32.7085 25.1531 33.2281 26.776C33.7477 28.399 34.4533 30.6056 34.7997 31.6833C35.1461 32.7609 35.6336 34.2876 35.8902 35.0831C36.1468 35.8785 36.4675 36.8792 36.6022 37.3025L36.8524 38.0787L37.2693 38.2198C37.6414 38.3417 37.8787 38.3866 37.8787 38.3353C37.8787 38.3289 37.7761 38.021 37.6606 37.6489C37.4746 37.078 36.615 34.3967 35.563 31.106C35.4219 30.6633 35.1781 29.9128 35.0242 29.4381C34.8702 28.9634 34.5238 27.8794 34.2544 27.0326C33.985 26.1859 33.6258 25.0569 33.4526 24.5309C33.2794 23.9985 32.9202 22.8759 32.6508 22.0292C32.3813 21.1824 31.9901 19.9572 31.7784 19.3093C31.5667 18.6615 31.4127 18.1162 31.432 18.097C31.464 18.0649 31.5218 18.1996 31.7206 18.7577C31.7848 18.9309 32.0606 19.6557 32.33 20.3614C32.5994 21.067 33.01 22.1511 33.2409 22.7669C33.4718 23.3827 33.7605 24.1332 33.8696 24.4347C33.985 24.7362 34.3314 25.6406 34.6393 26.4553C34.9472 27.2636 35.3578 28.3476 35.5502 28.8608C36.166 30.4837 36.7177 31.9399 37.141 33.0624C37.3656 33.659 37.6863 34.4993 37.8467 34.9227C38.0134 35.3461 38.2123 35.8785 38.2957 36.1094C38.3791 36.3403 38.6485 37.0459 38.8858 37.681L39.3284 38.8292L39.8352 39.0088C40.111 39.1051 40.3548 39.1756 40.3676 39.1564C40.3997 39.1243 40.3163 38.8805 39.7069 37.2961C39.4375 36.5905 39.027 35.5064 38.796 34.8906C38.5651 34.2748 38.2764 33.5243 38.1674 33.2228C38.0519 32.9213 37.7055 32.0104 37.3976 31.2022C37.0897 30.3875 36.6792 29.3098 36.4867 28.7967C35.9672 27.4303 35.3642 25.8331 34.8831 24.563C34.6521 23.9472 34.3635 23.1966 34.2544 22.8952C33.0741 19.8225 32.4198 18.0649 32.4455 18.0457C32.4712 18.0136 32.7662 18.6679 34.96 23.6649C35.8645 25.7304 36.7626 27.7639 36.9486 28.1873C37.1346 28.6106 37.8723 30.2849 38.5843 31.9078C39.2964 33.5307 40.0982 35.3461 40.3612 35.949C41.2272 37.9055 41.5159 38.5726 41.7275 39.0602C41.843 39.3232 41.9777 39.5862 42.0419 39.6439C42.1702 39.7722 43.0746 40.0288 43.0746 39.939C43.0746 39.8877 41.9905 37.4052 39.8224 32.4851C39.0975 30.8429 38.7383 30.0347 37.8467 27.9948C37.3976 26.9685 36.8716 25.7753 36.6792 25.3327C36.4803 24.8901 36.2686 24.4154 36.2109 24.2743C36.1019 24.0241 35.9094 23.5879 34.9087 21.3236C34.6457 20.7206 34.2801 19.8867 34.0941 19.4633C33.6194 18.3728 33.01 16.9872 32.9266 16.8012C32.7919 16.5125 32.7855 16.5061 32.8624 16.5767C32.9458 16.6537 33.2666 17.2823 35.5053 21.7084C36.429 23.543 37.6414 25.9357 38.1995 27.0326C39.5465 29.6883 41.426 33.396 43.3954 37.2961C44.287 39.0602 45.0632 40.5548 45.1145 40.6125C45.1658 40.6767 45.262 40.728 45.3198 40.728C45.3839 40.728 45.5314 40.7665 45.6469 40.8178C45.7688 40.8627 45.9612 40.9268 46.0767 40.9525L46.282 40.9974L45.493 39.4322C44.6077 37.6938 42.7539 34.0439 40.7012 29.9834C38.8602 26.3398 37.2052 23.0748 35.5694 19.861C34.8253 18.3856 34.2224 17.1668 34.2416 17.1476C34.2544 17.1348 34.7355 17.9494 35.3129 18.963C35.8902 19.9829 37.0897 22.0805 37.9749 23.6328C40.079 27.3085 42.8501 32.1644 45.8393 37.4052C48.1935 41.5426 48.2449 41.6196 48.495 41.7158C48.6426 41.7736 48.8158 41.8185 48.8927 41.8185C48.9697 41.8185 49.0467 41.8441 49.0659 41.8762C49.1108 41.9468 49.4252 42.0109 49.4252 41.9468C49.4252 41.8826 48.6041 40.4265 46.7951 37.264C45.9548 35.8015 43.575 31.6255 41.503 27.9948C35.114 16.7948 34.1261 15.0692 32.4262 12.0864C29.7193 7.35238 26.9417 2.47081 26.2874 1.30975C25.9474 0.706773 25.6139 0.16794 25.5433 0.103793C25.3637 -0.0501594 25.1007 -0.0309153 24.9275 0.148696Z" fill="black"/>
<path d="M12.1237 21.9137C2.39909 38.5727 0 42.723 0 42.9026C0 43.172 0.256587 43.3965 0.49393 43.3388C0.609395 43.3067 11.091 32.9406 27.0315 17.0899L27.7627 16.365L27.6409 15.9032C27.5703 15.653 27.4933 15.4413 27.4613 15.4413C27.4356 15.4413 24.1192 18.7128 20.0908 22.7092C16.0624 26.7119 12.8101 29.9257 12.8614 29.8487C12.932 29.7525 24.9082 16.5318 26.9866 14.261L27.2239 14.0044L27.1084 13.5297C27.0507 13.2667 26.9673 13.0486 26.9352 13.0422C26.9032 13.0358 23.8177 16.4035 20.078 20.5282C16.3382 24.6528 13.0539 28.2643 12.778 28.5529L12.2713 29.0854L12.8101 28.4118C13.1116 28.0398 16.3254 24.1011 19.9625 19.6494C23.5932 15.1976 26.5889 11.5284 26.6081 11.4963C26.6402 11.445 26.4413 10.4699 26.3836 10.4122C26.3708 10.4058 23.1313 14.3508 19.1799 19.1811C15.2349 24.0178 11.9698 27.9884 11.9377 28.0141C11.8928 28.0398 11.8928 28.0205 11.9377 27.9564C11.9762 27.905 15.1515 23.5816 18.9939 18.3408C24.0871 11.3937 25.9795 8.77006 25.973 8.65459C25.9666 8.41083 25.8255 7.80144 25.7614 7.73729C25.7357 7.71163 25.6202 7.79502 25.5176 7.92973C25.415 8.06444 21.9831 12.7343 17.897 18.3087C13.8108 23.883 10.4431 28.4695 10.4046 28.508C10.2571 28.6492 10.8921 27.6741 17.9034 16.9295C21.9254 10.7714 25.2354 5.70384 25.261 5.65894C25.3059 5.58837 25.2674 5.37669 25.0814 4.69032L25.0108 4.40807L17.6789 15.6402C13.644 21.8175 10.3341 26.8723 10.3148 26.8723C10.2763 26.8723 10.1609 27.0711 17.4736 14.5561L24.5041 2.52857L24.4913 2.17576C24.472 1.75881 24.3501 1.14941 24.2924 1.14941C24.2667 1.14941 18.795 10.4956 12.1237 21.9137Z" fill="black"/>
<path d="M12.5728 33.1009C12.3803 33.287 12.2392 33.4602 12.2649 33.4858C12.297 33.5115 16.691 34.7238 22.0344 36.1736C27.3779 37.6233 31.7848 38.8228 31.8168 38.8357C31.9451 38.8998 31.3421 38.7908 30.3735 38.5791C29.8283 38.4572 27.9809 38.0595 26.2681 37.6874C24.5554 37.3154 20.6168 36.4622 17.5121 35.7887C14.4074 35.1151 11.7004 34.5314 11.5015 34.4929L11.1359 34.4224L10.7767 34.7752C10.5778 34.974 10.4367 35.1472 10.4688 35.1665C10.4944 35.1793 15.2926 36.2313 21.1171 37.495C26.9481 38.7587 31.7078 39.7979 31.695 39.8107C31.6821 39.8235 27.9424 39.227 23.3751 38.4829C18.8079 37.7387 13.7659 36.9177 12.1622 36.6547L9.24998 36.18L8.98698 36.4302C8.83944 36.5649 8.65342 36.7316 8.56361 36.8022L8.40324 36.9305L8.56361 36.969C8.71756 37.0075 16.2676 38.2391 26.1078 39.8363C28.7185 40.2597 30.8867 40.6189 30.9188 40.6318C31.0342 40.6895 30.2901 40.6125 22.5797 39.7658C9.39752 38.3161 7.3769 38.098 7.28068 38.098C7.13314 38.098 6.33772 38.8549 6.44677 38.8934C6.49808 38.9062 9.24357 39.2141 12.5407 39.5733C18.6218 40.2341 27.6024 41.2155 30.5339 41.5427C31.4191 41.6389 32.067 41.7287 31.9772 41.7415C31.8874 41.7479 25.7742 41.4272 18.3845 41.0167C10.9948 40.6125 4.92007 40.279 4.88158 40.279C4.8431 40.279 4.61217 40.465 4.36841 40.6895L3.9258 41.1L4.33634 41.1385C4.56085 41.1642 10.0711 41.4657 16.582 41.8249C23.0929 42.1777 29.0264 42.5049 29.7641 42.5562C31.2267 42.6524 30.9573 42.6524 10.1352 42.5498L2.37344 42.5113L1.92442 42.9346C1.68066 43.1656 1.49463 43.3644 1.50746 43.3773C1.52671 43.3965 5.33703 43.4286 9.97484 43.4478C14.6127 43.4735 23.5611 43.5184 29.8604 43.5504C39.5145 43.6018 49.4444 43.6338 49.7266 43.621C49.996 43.6018 50.1051 43.0565 49.8742 42.8641C49.81 42.8063 49.2968 42.6332 48.7388 42.4856C47.1287 42.0558 38.5843 39.7401 28.0642 36.8792C22.7208 35.4295 17.1785 33.922 15.7481 33.5371C14.3176 33.1523 13.0988 32.8187 13.0411 32.7994C12.9705 32.7802 12.8101 32.8828 12.5728 33.1009Z" fill="black"/>
</svg>
